<svg width="100%" viewBox="0 0 520 440" xmlns="http://www.w3.org/2000/svg" style="font-family:-apple-system,BlinkMacSystemFont,'Segoe UI',sans-serif;background:#fff;max-width:520px">
<defs><marker id="a" viewBox="0 0 10 10" refX="8" refY="5" markerWidth="5" markerHeight="5" orient="auto-start-reverse"><path d="M2 1L8 5L2 9" fill="none" stroke="context-stroke" stroke-width="1.5" stroke-linecap="round" stroke-linejoin="round"/></marker></defs>

<line x1="18" y1="24" x2="18" y2="424" stroke="#f0ede8" stroke-width="0.5" stroke-dasharray="2 4"/>

<!-- Each row: h=54, gap=4, start y=24 -->
<!-- ① -->
<text x="9" y="51" font-size="9" fill="#bbb" text-anchor="middle">①</text>
<rect x="24"  y="24" width="124" height="46" rx="5" fill="#EEEDFE" stroke="#534AB7" stroke-width="0.6"/>
<text x="86"  y="40" font-size="10" font-weight="600" fill="#3C3489" text-anchor="middle">Admin fires event</text>
<text x="86"  y="54" font-size="8"  fill="#534AB7"  text-anchor="middle">POST /academics/event</text>
<rect x="156" y="24" width="356" height="46" rx="5" fill="#F1EFE8" stroke="#D3D1C7" stroke-width="0.6"/>
<text x="334" y="40" font-size="9" fill="#444" text-anchor="middle">{ eventType: "CLASS_CANCELLED", groupId,</text>
<text x="334" y="55" font-size="9" fill="#444" text-anchor="middle">  reason, newTime, newHall }</text>
<line x1="86" y1="70" x2="86" y2="82" stroke="#534AB7" stroke-width="0.6" marker-end="url(#a)"/>

<!-- ② -->
<text x="9" y="109" font-size="9" fill="#bbb" text-anchor="middle">②</text>
<rect x="24"  y="82" width="124" height="46" rx="5" fill="#F1EFE8" stroke="#5F5E5A" stroke-width="0.6"/>
<text x="86"  y="98"  font-size="10" font-weight="600" fill="#2C2C2A" text-anchor="middle">Auth + permissions</text>
<text x="86"  y="112" font-size="8"  fill="#5F5E5A"  text-anchor="middle">verifyToken · checkPerms</text>
<rect x="156" y="82" width="356" height="46" rx="5" fill="#F1EFE8" stroke="#D3D1C7" stroke-width="0.6"/>
<text x="334" y="98"  font-size="9" fill="#444" text-anchor="middle">JWT → req.user { id, role, name, groups }</text>
<text x="334" y="113" font-size="9" fill="#444" text-anchor="middle">EVENT_PERMISSIONS[role].includes(type) or 403</text>
<line x1="86" y1="128" x2="86" y2="140" stroke="#888" stroke-width="0.6" marker-end="url(#a)"/>

<!-- ③ -->
<text x="9" y="167" font-size="9" fill="#bbb" text-anchor="middle">③</text>
<rect x="24"  y="140" width="124" height="46" rx="5" fill="#E6F1FB" stroke="#185FA5" stroke-width="0.6"/>
<text x="86"  y="156" font-size="10" font-weight="600" fill="#042C53" text-anchor="middle">Save Event doc</text>
<text x="86"  y="170" font-size="8"  fill="#185FA5"  text-anchor="middle">MongoDB · pending</text>
<rect x="156" y="140" width="356" height="46" rx="5" fill="#E6F1FB" stroke="#B5D4F4" stroke-width="0.6"/>
<text x="334" y="156" font-size="9" fill="#0C447C" text-anchor="middle">{ domain, type, groupId, metadata,</text>
<text x="334" y="171" font-size="9" fill="#0C447C" text-anchor="middle">  firedBy, deliveryStats: { total: N } }</text>
<line x1="86" y1="186" x2="86" y2="198" stroke="#185FA5" stroke-width="0.6" marker-end="url(#a)"/>

<!-- ④ -->
<text x="9" y="225" font-size="9" fill="#bbb" text-anchor="middle">④</text>
<rect x="24"  y="198" width="124" height="46" rx="5" fill="#E6F1FB" stroke="#185FA5" stroke-width="0.6"/>
<text x="86"  y="214" font-size="10" font-weight="600" fill="#042C53" text-anchor="middle">Fetch subscribers</text>
<text x="86"  y="228" font-size="8"  fill="#185FA5"  text-anchor="middle">Subscription.find()</text>
<rect x="156" y="198" width="356" height="46" rx="5" fill="#E6F1FB" stroke="#B5D4F4" stroke-width="0.6"/>
<text x="334" y="214" font-size="9" fill="#0C447C" text-anchor="middle">→ studentIds[], fcmTokens[]</text>
<text x="334" y="229" font-size="9" fill="#0C447C" text-anchor="middle">Filters out null fcmToken entries</text>
<line x1="86" y1="244" x2="86" y2="256" stroke="#185FA5" stroke-width="0.6" marker-end="url(#a)"/>

<!-- ⑤ -->
<text x="9" y="283" font-size="9" fill="#bbb" text-anchor="middle">⑤</text>
<rect x="24"  y="256" width="124" height="46" rx="5" fill="#FAEEDA" stroke="#854F0B" stroke-width="0.6"/>
<text x="86"  y="272" font-size="10" font-weight="600" fill="#412402" text-anchor="middle">Enqueue job</text>
<text x="86"  y="286" font-size="8"  fill="#854F0B"  text-anchor="middle">Redis · BullMQ</text>
<rect x="156" y="256" width="356" height="46" rx="5" fill="#FAEEDA" stroke="#FAC775" stroke-width="0.6"/>
<text x="334" y="272" font-size="9" fill="#633806" text-anchor="middle">queue.add('academic-event', { eventId, fcmTokens })</text>
<text x="334" y="287" font-size="9" fill="#633806" text-anchor="middle">attempts: 3 · backoff: exponential · delay: 2s</text>
<line x1="86" y1="302" x2="86" y2="314" stroke="#BA7517" stroke-width="0.6" marker-end="url(#a)"/>

<!-- ⑥ -->
<text x="9" y="341" font-size="9" fill="#bbb" text-anchor="middle">⑥</text>
<rect x="24"  y="314" width="124" height="46" rx="5" fill="#E1F5EE" stroke="#0F6E56" stroke-width="0.6"/>
<text x="86"  y="330" font-size="10" font-weight="600" fill="#04342C" text-anchor="middle">Worker processes</text>
<text x="86"  y="344" font-size="8"  fill="#0F6E56"  text-anchor="middle">sendMulticast · update DB</text>
<rect x="156" y="314" width="356" height="46" rx="5" fill="#E1F5EE" stroke="#9FE1CB" stroke-width="0.6"/>
<text x="334" y="330" font-size="9" fill="#085041" text-anchor="middle">Firebase Admin → sendEachForMulticast(tokens)</text>
<text x="334" y="345" font-size="9" fill="#085041" text-anchor="middle">Event.updateOne({ deliveryStats })</text>
<line x1="86" y1="360" x2="86" y2="374" stroke="#1D9E75" stroke-width="0.6" marker-end="url(#a)"/>

<!-- ⑦ -->
<text x="9" y="398" font-size="9" fill="#bbb" text-anchor="middle">⑦</text>
<rect x="24"  y="374" width="202" height="36" rx="5" fill="#EAF3DE" stroke="#3B6D11" stroke-width="0.6"/>
<text x="125" y="388" font-size="10" font-weight="600" fill="#173404" text-anchor="middle">OS push notification</text>
<text x="125" y="402" font-size="8"  fill="#3B6D11"  text-anchor="middle">Tab closed · service worker</text>

<rect x="234" y="374" width="278" height="36" rx="5" fill="#EAF3DE" stroke="#3B6D11" stroke-width="0.6"/>
<text x="373" y="388" font-size="10" font-weight="600" fill="#173404" text-anchor="middle">In-app toast</text>
<text x="373" y="402" font-size="8"  fill="#3B6D11"  text-anchor="middle">onForegroundMessage · tab open</text>

<rect x="24" y="418" width="488" height="18" rx="4" fill="#F1EFE8" stroke="#D3D1C7" stroke-width="0.5"/>
<text x="268" y="430" font-size="8" fill="#5F5E5A" text-anchor="middle">TTL 24 h · dismissal on Subscription.dismissedEvents (students) or Student.dismissedEvents (admins)</text>
</svg>
